# xmcd
#
# Track frame offsets:
#	150
#	43245
#	78725
#	105220
#	145110
#	179918
#	204096
#
# Disc length: 3034 seconds
#
# Revision: 0
# Processed by: cddbd v1.5.2PL0 Copyright (c) Steve Scherf et al.
# Submitted via: EasyCDDAExtractor 11.6.0.1
#
DISCID=5c0bd807
DTITLE=Yoav - Beautiful Lie (Remixes) - PROMO CDM
DYEAR=2007
DGENRE=Trance
TTITLE0=Beautiful Lie (Diesel Remix)
TTITLE1=Beautiful Lie (Giuseppe Ottaviani Remix)
TTITLE2=Beautiful Lie (Tronik Youth Remix)
TTITLE3=Beautiful Lie (Diesel Dub)
TTITLE4=Beautiful Lie (Giuseppe Ottaviani Dub)
TTITLE5=Beautiful Lie (Ark Remix)
TTITLE6=Beautiful Lie (Radio Version)
EXTD=
EXTT0=
EXTT1=
EXTT2=
EXTT3=
EXTT4=
EXTT5=
EXTT6=
PLAYORDER=
